<svg xmlns="http://www.w3.org/2000/svg" viewBox="0 0 760 442" width="760" height="442" font-family="ui-sans-serif,-apple-system,Segoe UI,Helvetica,Arial,sans-serif">
<rect width="760" height="442" fill="#fcfcfb"/>
<text x="20" y="26" font-size="14.5" font-weight="700" fill="#0b0b0b">Homes actually mitigated with FEMA hazard-mitigation grants</text>
<text x="20" y="44" font-size="11.5" fill="#52514e">NC Atlantic barrier-island towns that filed at least one homeowner-directed application. All years on record, 1989–2026.</text>
<line x1="178.0" y1="70" x2="178.0" y2="365" stroke="#dedbd4" stroke-width="1"/>
<text x="178.0" y="64" font-size="10" fill="#7a7873" text-anchor="middle">0</text>
<line x1="299.9" y1="70" x2="299.9" y2="365" stroke="#dedbd4" stroke-width="1"/>
<text x="299.9" y="64" font-size="10" fill="#7a7873" text-anchor="middle">10</text>
<line x1="421.7" y1="70" x2="421.7" y2="365" stroke="#dedbd4" stroke-width="1"/>
<text x="421.7" y="64" font-size="10" fill="#7a7873" text-anchor="middle">20</text>
<line x1="543.6" y1="70" x2="543.6" y2="365" stroke="#dedbd4" stroke-width="1"/>
<text x="543.6" y="64" font-size="10" fill="#7a7873" text-anchor="middle">30</text>
<line x1="665.4" y1="70" x2="665.4" y2="365" stroke="#dedbd4" stroke-width="1"/>
<text x="665.4" y="64" font-size="10" fill="#7a7873" text-anchor="middle">40</text>
<text x="168" y="93.0" font-size="11.5" font-weight="400" fill="#52514e" text-anchor="end">Carolina Beach</text>
<rect x="178" y="78" width="524.0" height="22" rx="4" fill="#2a78d6"/>
<text x="710.0" y="93.0" font-size="11" font-weight="400" fill="#52514e">43</text>
<text x="168" y="122.0" font-size="11.5" font-weight="400" fill="#52514e" text-anchor="end">Wrightsville Beach</text>
<rect x="178" y="107" width="97.5" height="22" rx="4" fill="#2a78d6"/>
<text x="283.5" y="122.0" font-size="11" font-weight="400" fill="#52514e">8</text>
<text x="168" y="151.0" font-size="11.5" font-weight="400" fill="#52514e" text-anchor="end">Oak Island</text>
<rect x="178" y="136" width="73.1" height="22" rx="4" fill="#2a78d6"/>
<text x="259.1" y="151.0" font-size="11" font-weight="400" fill="#52514e">6</text>
<text x="168" y="180.0" font-size="11.5" font-weight="400" fill="#52514e" text-anchor="end">Surf City</text>
<rect x="178" y="165" width="48.7" height="22" rx="4" fill="#2a78d6"/>
<text x="234.7" y="180.0" font-size="11" font-weight="400" fill="#52514e">4</text>
<text x="168" y="209.0" font-size="11.5" font-weight="400" fill="#52514e" text-anchor="end">Atlantic Beach</text>
<rect x="178" y="194" width="36.6" height="22" rx="4" fill="#2a78d6"/>
<text x="222.6" y="209.0" font-size="11" font-weight="400" fill="#52514e">3</text>
<text x="168" y="238.0" font-size="11.5" font-weight="400" fill="#52514e" text-anchor="end">Kure Beach</text>
<rect x="178" y="223" width="12.2" height="22" rx="4" fill="#2a78d6"/>
<text x="198.2" y="238.0" font-size="11" font-weight="400" fill="#52514e">1</text>
<text x="168" y="267.0" font-size="11.5" font-weight="400" fill="#52514e" text-anchor="end">Nags Head</text>
<rect x="178" y="252" width="12.2" height="22" rx="4" fill="#2a78d6"/>
<text x="198.2" y="267.0" font-size="11" font-weight="400" fill="#52514e">1</text>
<text x="168" y="296.0" font-size="11.5" font-weight="400" fill="#52514e" text-anchor="end">Sunset Beach</text>
<rect x="178" y="281" width="12.2" height="22" rx="4" fill="#2a78d6"/>
<text x="198.2" y="296.0" font-size="11" font-weight="400" fill="#52514e">1</text>
<text x="168" y="325.0" font-size="11.5" font-weight="700" fill="#0b0b0b" text-anchor="end">North Topsail Beach</text>
<rect x="178" y="310" width="3" height="22" fill="#e2e0da"/>
<text x="188" y="325.0" font-size="11" font-weight="700" fill="#eb6834">0 — 4 applications filed, none completed</text>
<text x="168" y="354.0" font-size="11.5" font-weight="400" fill="#52514e" text-anchor="end">Topsail Beach</text>
<rect x="178" y="339" width="3" height="22" fill="#e2e0da"/>
<text x="188" y="354.0" font-size="11" font-weight="400" fill="#7a7873">0 — 1 application filed, none completed</text>
<rect x="20" y="400" width="11" height="11" rx="3" fill="#2a78d6"/>
<text x="37" y="409.5" font-size="11" fill="#52514e">Peer barrier-island town</text>
<rect x="190" y="400" width="11" height="11" rx="3" fill="#eb6834"/>
<text x="207" y="409.5" font-size="11" fill="#52514e">North Topsail Beach</text>
<text x="20" y="428" font-size="9.5" fill="#7a7873">Source: FEMA OpenFEMA Hazard Mitigation Assistance Projects v4. Homes mitigated = numberOfFinalProperties on activity codes 200/202/203/207.</text>
</svg>